<?xml version="1.0" standalone="no"?>
<!DOCTYPE svg PUBLIC "-//W3C//DTD SVG 20010904//EN"
 "http://www.w3.org/TR/2001/REC-SVG-20010904/DTD/svg10.dtd">
<svg version="1.0" xmlns="http://www.w3.org/2000/svg"
 width="2974.000000pt" height="2974.000000pt" viewBox="0 0 2974.000000 2974.000000"
 preserveAspectRatio="xMidYMid meet">
<metadata>
Created by potrace 1.11, written by Peter Selinger 2001-2013
</metadata>
<g transform="translate(0.000000,2974.000000) scale(0.100000,-0.100000)"
fill="#000000" stroke="none">
<path d="M14028 28035 c-2 -2 -55 -5 -118 -9 -63 -3 -128 -8 -145 -10 -16 -2
-55 -7 -85 -10 -30 -3 -66 -8 -80 -11 -13 -2 -42 -7 -65 -11 -220 -32 -648
-145 -782 -205 -24 -10 -47 -19 -51 -19 -8 0 -99 -35 -167 -65 -328 -142 -622
-306 -905 -505 -69 -48 -143 -102 -165 -119 -22 -17 -44 -34 -50 -38 -434
-333 -963 -854 -1390 -1366 -22 -27 -49 -58 -59 -70 -19 -22 -267 -332 -318
-397 -39 -50 -223 -299 -250 -338 -13 -18 -32 -45 -44 -60 -118 -153 -601
-894 -734 -1127 -25 -42 -208 -357 -220 -375 -11 -18 -234 -418 -268 -480 -13
-25 -40 -74 -60 -110 -49 -88 -147 -274 -178 -335 -14 -27 -42 -81 -63 -120
-41 -78 -256 -497 -501 -980 -174 -343 -379 -744 -548 -1075 -182 -357 -923
-1836 -1034 -2065 -142 -292 -249 -516 -368 -770 -21 -44 -59 -125 -85 -180
-26 -55 -101 -219 -167 -365 -66 -146 -132 -292 -147 -325 -16 -33 -72 -161
-127 -285 -54 -124 -112 -247 -129 -275 -17 -27 -37 -69 -43 -92 -7 -24 -110
-237 -229 -475 -204 -409 -269 -543 -435 -888 -108 -223 -246 -513 -298 -625
-15 -33 -47 -100 -70 -150 -57 -121 -84 -182 -202 -440 -55 -121 -114 -249
-130 -285 -37 -81 -44 -95 -113 -255 -32 -71 -65 -148 -75 -170 -41 -89 -160
-365 -160 -370 0 -2 -11 -28 -24 -57 -108 -238 -198 -444 -199 -459 -1 -10 -4
-16 -7 -14 -4 2 -26 -40 -50 -93 -24 -53 -58 -128 -76 -167 -56 -121 -100
-216 -159 -345 -31 -69 -74 -161 -95 -205 -21 -44 -51 -109 -68 -145 -32 -70
-144 -310 -210 -450 -21 -47 -105 -229 -186 -405 -81 -176 -151 -327 -155
-336 -5 -8 -43 -91 -86 -185 -84 -186 -83 -185 -150 -334 -26 -58 -55 -123
-65 -145 -45 -100 -213 -482 -221 -503 -5 -12 -18 -43 -30 -70 -33 -74 -56
-127 -119 -277 -23 -55 -48 -113 -55 -130 -20 -44 -156 -374 -205 -495 -23
-58 -59 -148 -81 -200 -59 -146 -164 -417 -236 -610 -35 -96 -68 -184 -73
-195 -15 -32 -125 -341 -165 -460 -40 -117 -74 -245 -100 -366 -9 -41 -18 -82
-21 -92 -8 -35 -13 -55 -18 -92 -4 -20 -8 -40 -10 -44 -2 -3 -7 -27 -10 -53
-4 -25 -15 -95 -26 -155 -10 -59 -22 -135 -26 -168 -3 -33 -8 -69 -10 -80 -2
-10 -6 -51 -10 -90 -3 -38 -7 -90 -10 -115 -10 -100 -4 -426 10 -535 3 -27 8
-68 11 -90 3 -22 7 -51 10 -65 3 -14 10 -51 15 -82 20 -106 77 -295 119 -393
116 -267 239 -451 436 -650 72 -72 146 -143 165 -157 63 -48 115 -88 125 -96
21 -17 164 -112 169 -112 3 0 24 -13 48 -29 66 -43 359 -184 488 -234 224 -86
568 -194 679 -213 14 -3 40 -9 56 -14 31 -9 115 -26 175 -34 19 -3 51 -8 70
-11 46 -7 225 -33 273 -40 73 -10 103 -14 192 -25 50 -6 101 -13 115 -15 14
-2 54 -7 90 -10 36 -4 73 -9 83 -11 10 -2 51 -6 90 -9 40 -3 92 -8 117 -10 93
-11 137 -15 195 -20 33 -3 85 -7 115 -10 30 -3 89 -7 130 -10 41 -3 100 -7
130 -10 112 -9 314 -21 505 -30 77 -3 181 -8 230 -10 293 -15 594 -19 1390
-19 779 -1 1062 2 1895 19 96 2 351 7 565 11 729 14 9233 7 9252 -8 7 -6 19
-6 30 0 10 5 27 8 38 6 11 -2 55 -5 97 -7 86 -4 143 10 171 44 32 39 18 135
-38 269 -15 36 -43 103 -62 150 -19 47 -41 100 -49 118 -8 17 -20 47 -28 65
-17 39 -206 492 -251 602 -92 224 -137 333 -149 360 -8 17 -62 147 -121 290
-102 246 -134 324 -155 370 -5 11 -25 61 -45 110 -20 50 -43 104 -50 120 -7
17 -34 82 -60 145 -26 63 -53 128 -61 144 -8 16 -14 33 -14 37 0 5 -11 32 -24
61 -13 29 -50 116 -82 193 -31 77 -79 192 -105 255 -26 63 -70 171 -98 240
-29 69 -56 134 -61 145 -24 50 -713 1723 -719 1745 -5 17 -10 20 -15 12 -5 -8
-12 -10 -19 -4 -7 5 -34 17 -62 28 -56 21 -221 22 -4490 9 -1931 -6 -2115 -7
-2870 -20 -495 -9 -942 -11 -959 -5 -9 4 19 71 99 235 162 333 199 409 200
415 1 3 13 30 27 60 23 50 102 223 158 345 12 28 38 84 57 125 19 41 53 116
75 165 22 50 48 109 59 132 10 23 19 44 19 47 0 3 13 33 29 68 17 35 64 144
107 243 42 99 85 197 95 217 11 21 17 38 13 38 -4 0 -2 6 4 12 5 7 57 123 115
258 58 135 119 275 136 313 17 37 31 69 31 71 0 3 38 91 84 198 46 106 128
294 181 418 53 124 103 239 110 255 8 17 66 151 130 299 64 148 127 293 140
323 14 29 25 56 25 59 0 3 11 29 24 57 62 136 496 1149 548 1277 27 69 56 139
63 155 60 138 85 189 261 535 60 118 133 265 161 325 109 234 196 420 258 550
26 55 64 136 85 180 20 44 61 130 90 190 29 61 65 137 80 170 26 57 66 140
242 505 175 361 260 534 423 860 95 190 211 419 257 510 140 270 218 421 253
485 18 33 56 105 85 160 29 55 68 126 86 158 19 32 34 60 34 62 0 7 325 587
441 787 171 294 272 454 378 598 106 144 290 334 417 430 32 25 60 48 62 51 3
7 13 6 117 -12 231 -39 447 -180 663 -432 419 -490 994 -1343 1437 -2132 157
-279 311 -563 460 -850 92 -175 520 -1032 625 -1250 130 -268 356 -732 539
-1105 l71 -145 -387 -5 c-574 -7 -2432 -4 -2863 5 -588 12 -623 9 -765 -59
-156 -75 -237 -191 -390 -561 -21 -49 -49 -115 -62 -145 -14 -30 -41 -93 -60
-140 -20 -46 -46 -107 -58 -135 -12 -27 -51 -115 -85 -195 -34 -80 -71 -163
-81 -185 -9 -22 -43 -98 -74 -170 -101 -232 -157 -359 -192 -432 -18 -39 -33
-74 -33 -77 0 -2 -13 -33 -29 -68 -16 -35 -45 -101 -66 -148 -21 -47 -48 -109
-62 -139 -13 -29 -94 -211 -179 -405 -86 -193 -166 -374 -180 -403 -13 -28
-24 -54 -24 -57 0 -3 -22 -53 -50 -111 -27 -58 -50 -111 -50 -118 0 -7 -4 -17
-9 -22 -4 -6 -57 -120 -116 -255 -59 -135 -118 -267 -131 -295 -12 -27 -48
-108 -79 -180 -31 -71 -76 -164 -100 -206 -23 -43 -48 -93 -54 -112 -14 -40
-16 -110 -6 -155 l7 -32 1011 -1 c557 0 1476 -2 2042 -5 567 -3 1917 -6 3000
-8 1341 -3 1986 -7 2021 -14 112 -24 194 -70 262 -148 54 -61 93 -131 147
-267 25 -61 50 -121 55 -132 10 -24 214 -538 216 -545 0 -3 5 -16 11 -30 6
-14 110 -272 231 -575 121 -302 286 -714 367 -915 81 -201 178 -444 217 -540
73 -184 77 -194 101 -250 8 -19 57 -138 107 -265 50 -126 98 -243 105 -260 7
-16 63 -154 123 -305 61 -151 168 -417 237 -590 70 -173 135 -335 145 -360 27
-71 470 -1183 480 -1205 5 -11 41 -101 81 -199 83 -207 123 -280 195 -350 58
-58 112 -88 204 -113 59 -16 114 -17 560 -15 272 1 1742 4 3265 6 1524 2 2795
7 2825 11 80 10 128 40 136 84 9 43 -7 124 -35 182 -12 23 -21 46 -21 50 0 4
-18 47 -41 96 -22 48 -50 108 -61 133 -11 25 -33 72 -48 105 -15 33 -51 112
-80 175 -29 63 -72 157 -96 209 -24 51 -44 95 -44 97 0 2 -15 36 -34 76 -19
40 -58 125 -86 188 -29 63 -70 153 -92 200 -23 47 -58 123 -78 170 -35 78 -83
184 -130 285 -78 168 -110 237 -110 240 0 1 -20 45 -44 96 -24 52 -56 121 -71
154 -15 33 -50 110 -77 170 -28 61 -64 139 -80 175 -58 126 -141 306 -179 388
-22 46 -39 85 -39 86 0 2 -23 53 -51 112 -28 60 -59 127 -68 149 -28 60 -60
132 -96 210 -18 39 -47 102 -65 140 -18 39 -51 113 -75 165 -39 86 -74 162
-140 305 -12 28 -48 106 -80 175 -31 69 -68 150 -82 180 -63 135 -100 216
-168 365 -64 141 -90 198 -165 360 -70 152 -95 206 -115 250 -13 28 -71 155
-130 284 -59 129 -111 241 -116 250 -4 9 -18 39 -30 66 -11 28 -36 82 -54 120
-18 39 -56 122 -85 185 -29 63 -65 143 -81 178 -16 34 -43 92 -60 130 -113
245 -145 315 -176 382 -19 41 -52 113 -73 160 -21 47 -45 99 -53 115 -8 17
-25 53 -37 80 -12 28 -73 160 -135 295 -62 135 -127 275 -144 313 -17 37 -45
97 -62 135 -17 37 -55 119 -84 182 -29 63 -66 144 -83 180 -16 36 -41 90 -55
120 -26 58 -120 261 -182 395 -21 44 -66 141 -100 215 -60 130 -317 676 -425
905 -29 61 -67 142 -85 180 -61 131 -143 304 -266 563 -28 59 -64 134 -79 167
-15 33 -60 128 -100 210 -40 83 -87 182 -105 220 -29 63 -125 265 -257 545
-28 58 -63 134 -79 168 -16 35 -52 110 -79 167 -27 57 -63 132 -79 167 -16 34
-56 121 -90 191 -34 70 -61 130 -61 132 0 2 -34 74 -75 160 -41 87 -75 158
-75 160 0 2 -22 49 -49 106 -57 122 -196 425 -271 589 -28 63 -69 152 -91 197
-21 45 -39 84 -39 87 0 3 -15 39 -34 78 -54 114 -82 176 -271 603 -381 860
-524 1201 -554 1317 -12 48 -47 138 -78 200 -125 255 -261 537 -365 758 -22
47 -56 119 -76 160 -19 41 -52 111 -72 155 -21 44 -53 114 -73 155 -43 93
-158 340 -204 440 -19 41 -48 102 -63 135 -94 200 -130 278 -130 280 0 2 -29
63 -64 137 -35 73 -75 158 -89 188 -13 30 -47 102 -75 160 -27 58 -73 155
-102 215 -29 61 -76 160 -106 221 -72 152 -355 719 -439 879 -139 268 -171
327 -285 535 -95 173 -96 175 -179 318 -42 73 -80 141 -86 150 -5 10 -44 75
-85 145 -41 70 -80 135 -85 145 -194 331 -552 891 -755 1182 -135 194 -465
639 -489 660 -3 3 -22 25 -41 50 -46 61 -215 265 -264 320 -23 25 -70 79 -106
119 -134 152 -180 200 -375 397 -206 207 -370 359 -535 499 -52 44 -97 82
-100 86 -23 27 -412 317 -528 393 -169 110 -242 156 -247 156 -3 0 -30 16 -60
35 -75 47 -459 235 -575 281 -214 83 -558 185 -705 208 -16 2 -61 9 -100 16
-38 6 -81 13 -95 15 -30 5 -99 12 -203 21 -73 6 -404 13 -409 9z"/>
</g>
</svg>
