<?xml version="1.0" standalone="no"?>
<!DOCTYPE svg PUBLIC "-//W3C//DTD SVG 20010904//EN"
 "http://www.w3.org/TR/2001/REC-SVG-20010904/DTD/svg10.dtd">
<svg version="1.0" xmlns="http://www.w3.org/2000/svg"
 width="250.000000pt" height="250.000000pt" viewBox="0 0 250.000000 250.000000"
 preserveAspectRatio="xMidYMid meet">
<metadata>
Created by potrace 1.14, written by Peter Selinger 2001-2017
</metadata>
<g transform="translate(0.000000,250.000000) scale(0.100000,-0.100000)"
fill="#000000" stroke="none">
<path d="M1446 2423 c-1 -2 -49 -7 -107 -13 -226 -22 -243 -24 -286 -41 -16
-6 -36 -12 -47 -15 -32 -6 -142 -65 -172 -92 -16 -14 -42 -37 -58 -51 l-28
-26 4 30 c3 17 9 39 14 50 8 20 8 20 -21 1 -62 -40 -90 -92 -99 -179 -4 -37
-9 -41 -57 -39 -47 2 -94 -19 -101 -46 -4 -14 0 -18 16 -17 12 1 29 -3 39 -9
18 -11 24 -46 8 -46 -18 0 -79 -65 -104 -110 -21 -39 -29 -65 -44 -140 -25
-130 -17 -273 23 -409 9 -31 18 -64 19 -74 2 -9 7 -22 10 -27 3 -5 -6 -21 -22
-34 -26 -22 -27 -29 -28 -107 0 -130 12 -217 37 -268 19 -39 28 -47 57 -51 39
-6 38 -3 80 -135 49 -151 116 -241 306 -408 135 -119 366 -159 531 -91 70 29
231 143 307 217 61 60 83 91 120 168 24 52 50 107 56 122 9 22 15 26 27 19 55
-31 111 66 149 257 16 83 13 135 -9 160 -17 19 -17 22 0 78 9 32 21 63 25 69
5 6 10 19 12 30 1 10 5 24 8 29 6 9 18 49 25 85 14 62 4 264 -16 330 -6 19
-13 46 -16 60 -11 63 -96 230 -127 251 -5 4 -6 15 -3 25 4 14 -1 22 -16 29
-14 6 -41 47 -73 110 -85 169 -156 253 -231 274 -37 10 -39 9 -67 -24 -37 -45
-86 -72 -97 -54 -8 12 -4 33 10 54 3 6 11 23 18 38 l12 28 -40 -3 c-22 -1 -42
-3 -44 -5z"/>
</g>
</svg>
